<svg width="96.000000" height="21.000000" viewBox="0 0 96 21" fill="none" xmlns="http://www.w3.org/2000/svg" xmlns:xlink="http://www.w3.org/1999/xlink">
	<desc>
			Created with Pixso.
	</desc>
	<defs>
		<filter id="filter_2_2_dd" x="-0.597656" y="-0.613281" width="96.040764" height="21.423828" filterUnits="userSpaceOnUse" color-interpolation-filters="sRGB">
			<feFlood flood-opacity="0" result="BackgroundImageFix"/>
			<feColorMatrix in="SourceAlpha" type="matrix" values="0 0 0 0 0 0 0 0 0 0 0 0 0 0 0 0 0 0 127 0" result="hardAlpha"/>
			<feOffset dx="0.3" dy="0.3"/>
			<feGaussianBlur stdDeviation="0"/>
			<feComposite in2="hardAlpha" operator="out" k2="-1" k3="1"/>
			<feColorMatrix type="matrix" values="0 0 0 0 0 0 0 0 0 0 0 0 0 0 0 0 0 0 1 0"/>
			<feBlend mode="normal" in2="BackgroundImageFix" result="effect_dropShadow_1"/>
			<feColorMatrix in="SourceAlpha" type="matrix" values="0 0 0 0 0 0 0 0 0 0 0 0 0 0 0 0 0 0 127 0" result="hardAlpha"/>
			<feOffset dx="0.6" dy="0.6"/>
			<feGaussianBlur stdDeviation="0"/>
			<feComposite in2="hardAlpha" operator="out" k2="-1" k3="1"/>
			<feColorMatrix type="matrix" values="0 0 0 0 0 0 0 0 0 0 0 0 0 0 0 0 0 0 1 0"/>
			<feBlend mode="normal" in2="effect_dropShadow_1" result="effect_dropShadow_2"/>
			<feColorMatrix in="SourceAlpha" type="matrix" values="0 0 0 0 0 0 0 0 0 0 0 0 0 0 0 0 0 0 127 0" result="hardAlpha"/>
			<feOffset dx="1" dy="1"/>
			<feGaussianBlur stdDeviation="0"/>
			<feComposite in2="hardAlpha" operator="out" k2="-1" k3="1"/>
			<feColorMatrix type="matrix" values="0 0 0 0 0 0 0 0 0 0 0 0 0 0 0 0 0 0 1 0"/>
			<feBlend mode="normal" in2="effect_dropShadow_2" result="effect_dropShadow_3"/>
			<feColorMatrix in="SourceAlpha" type="matrix" values="0 0 0 0 0 0 0 0 0 0 0 0 0 0 0 0 0 0 127 0" result="hardAlpha"/>
			<feOffset dx="1.5" dy="1.5"/>
			<feGaussianBlur stdDeviation="0"/>
			<feComposite in2="hardAlpha" operator="out" k2="-1" k3="1"/>
			<feColorMatrix type="matrix" values="0 0 0 0 0 0 0 0 0 0 0 0 0 0 0 0 0 0 1 0"/>
			<feBlend mode="normal" in2="effect_dropShadow_3" result="effect_dropShadow_4"/>
			<feBlend mode="normal" in="SourceGraphic" in2="effect_dropShadow_4" result="shape"/>
		</filter>
	</defs>
	<g filter="url(#filter_2_2_dd)">
		<path id="DeLance" d="M4.91 18L0.4 18L0.4 0.38L4.81 0.38C10.21 0.38 13.11 3.55 13.11 9.14C13.11 14.71 10.21 18 4.91 18ZM40.09 18L30.18 18L30.18 0.38L32.41 0.38L32.41 16.1L40.09 16.1L40.09 18ZM2.63 2.2L2.63 16.17L4.62 16.17C8.77 16.17 10.81 13.58 10.81 9.14C10.81 4.68 8.77 2.2 4.62 2.2L2.63 2.2ZM26.27 16.96C25.12 17.71 23.72 18.31 21.95 18.31C18.49 18.31 15.71 15.79 15.71 11.49C15.71 7.27 18.56 4.63 21.58 4.63C24.9 4.63 26.77 7.03 26.77 10.75C26.77 11.23 26.72 11.68 26.68 12L17.89 12C18.03 14.78 19.74 16.55 22.21 16.55C23.48 16.55 24.51 16.17 25.48 15.52L26.27 16.96ZM50.34 16.44C49.09 17.47 47.63 18.31 46.02 18.31C43.83 18.31 42.21 16.96 42.21 14.61C42.21 11.78 44.67 10.36 50.22 9.74C50.22 8.06 49.66 6.45 47.53 6.45C46.02 6.45 44.65 7.15 43.62 7.84L42.76 6.33C43.96 5.56 45.8 4.63 47.89 4.63C51.06 4.63 52.4 6.76 52.4 9.98L52.4 18L50.6 18L50.41 16.44L50.34 16.44ZM58.74 18L56.56 18L56.56 4.96L58.35 4.96L58.55 6.83L58.62 6.83C59.87 5.61 61.21 4.63 62.99 4.63C65.73 4.63 66.97 6.41 66.97 9.74L66.97 18L64.79 18L64.79 10.03C64.79 7.58 64.04 6.55 62.32 6.55C60.97 6.55 60.06 7.22 58.74 8.54L58.74 18ZM80.58 16.65C79.41 17.71 77.92 18.31 76.35 18.31C72.9 18.31 70.24 15.81 70.24 11.49C70.24 7.15 73.19 4.63 76.52 4.63C78.23 4.63 79.41 5.34 80.34 6.16L79.21 7.6C78.44 6.93 77.65 6.45 76.62 6.45C74.24 6.45 72.51 8.49 72.51 11.49C72.51 14.49 74.15 16.48 76.55 16.48C77.75 16.48 78.8 15.93 79.62 15.19L80.58 16.65ZM92.43 16.96C91.29 17.71 89.89 18.31 88.12 18.31C84.66 18.31 81.88 15.79 81.88 11.49C81.88 7.27 84.73 4.63 87.75 4.63C91.07 4.63 92.94 7.03 92.94 10.75C92.94 11.23 92.89 11.68 92.84 12L84.06 12C84.2 14.78 85.91 16.55 88.38 16.55C89.65 16.55 90.68 16.17 91.64 15.52L92.43 16.96ZM21.61 6.38C19.76 6.38 18.13 7.86 17.87 10.41L24.85 10.41C24.85 7.79 23.65 6.38 21.61 6.38ZM87.78 6.38C85.93 6.38 84.3 7.86 84.04 10.41L91.02 10.41C91.02 7.79 89.82 6.38 87.78 6.38ZM44.34 14.47C44.34 15.96 45.35 16.55 46.64 16.55C47.91 16.55 48.95 15.96 50.22 14.83L50.22 11.18C45.83 11.71 44.34 12.79 44.34 14.47Z" fill="#FFFFFF" fill-opacity="1.000000" fill-rule="evenodd"/>
		<path id="DeLance" d="M0.4 18L4.91 18C10.21 18 13.11 14.71 13.11 9.14C13.11 3.55 10.21 0.38 4.81 0.38L0.4 0.38L0.4 18ZM2.63 16.17L2.63 2.2L4.62 2.2C8.77 2.2 10.81 4.68 10.81 9.14C10.81 13.58 8.77 16.17 4.62 16.17L2.63 16.17ZM21.95 18.31C23.72 18.31 25.12 17.71 26.27 16.96L25.48 15.52C24.51 16.17 23.48 16.55 22.21 16.55C19.74 16.55 18.03 14.78 17.89 12L26.68 12C26.72 11.68 26.77 11.23 26.77 10.75C26.77 7.03 24.9 4.63 21.58 4.63C18.56 4.63 15.71 7.27 15.71 11.49C15.71 15.79 18.49 18.31 21.95 18.31ZM17.87 10.41C18.13 7.86 19.76 6.38 21.61 6.38C23.65 6.38 24.85 7.79 24.85 10.41L17.87 10.41ZM30.18 18L40.09 18L40.09 16.1L32.41 16.1L32.41 0.38L30.18 0.38L30.18 18ZM46.02 18.31C47.63 18.31 49.09 17.47 50.34 16.44L50.41 16.44L50.6 18L52.4 18L52.4 9.98C52.4 6.76 51.06 4.63 47.89 4.63C45.8 4.63 43.96 5.56 42.76 6.33L43.62 7.84C44.65 7.15 46.02 6.45 47.53 6.45C49.66 6.45 50.22 8.06 50.22 9.74C44.67 10.36 42.21 11.78 42.21 14.61C42.21 16.96 43.83 18.31 46.02 18.31ZM46.64 16.55C45.35 16.55 44.34 15.96 44.34 14.47C44.34 12.79 45.83 11.71 50.22 11.18L50.22 14.83C48.95 15.96 47.91 16.55 46.64 16.55ZM56.56 18L58.74 18L58.74 8.54C60.06 7.22 60.97 6.55 62.32 6.55C64.04 6.55 64.79 7.58 64.79 10.03L64.79 18L66.97 18L66.97 9.74C66.97 6.41 65.73 4.63 62.99 4.63C61.21 4.63 59.87 5.61 58.62 6.83L58.55 6.83L58.35 4.96L56.56 4.96L56.56 18ZM76.35 18.31C77.92 18.31 79.41 17.71 80.58 16.65L79.62 15.19C78.8 15.93 77.75 16.48 76.55 16.48C74.15 16.48 72.51 14.49 72.51 11.49C72.51 8.49 74.24 6.45 76.62 6.45C77.65 6.45 78.44 6.93 79.21 7.6L80.34 6.16C79.41 5.34 78.23 4.63 76.52 4.63C73.19 4.63 70.24 7.15 70.24 11.49C70.24 15.81 72.9 18.31 76.35 18.31ZM88.12 18.31C89.89 18.31 91.29 17.71 92.43 16.96L91.64 15.52C90.68 16.17 89.65 16.55 88.38 16.55C85.91 16.55 84.2 14.78 84.06 12L92.84 12C92.89 11.68 92.94 11.23 92.94 10.75C92.94 7.03 91.07 4.63 87.75 4.63C84.73 4.63 81.88 7.27 81.88 11.49C81.88 15.79 84.66 18.31 88.12 18.31ZM84.04 10.41C84.3 7.86 85.93 6.38 87.78 6.38C89.82 6.38 91.02 7.79 91.02 10.41L84.04 10.41Z" stroke="#000000" stroke-opacity="1.000000" stroke-width="1.000000"/>
	</g>
</svg>
